<svg width="3524" height="2530" viewBox="0 0 3524 2530" fill="none" xmlns="http://www.w3.org/2000/svg">
<path d="M2236.05 1343.77H1287.94C1274.46 1343.77 1263.58 1355.19 1263.92 1369.05C1266.79 1483.4 1274.32 1592.63 1285.77 1695.92C1287.42 1710.78 1301.37 1720.82 1315.46 1717.13C1460.41 1679.13 1609.79 1659.95 1761.99 1659.95C1914.2 1659.95 2063.58 1679.13 2208.53 1717.13C2222.62 1720.82 2236.57 1710.78 2238.22 1695.92C2249.67 1592.63 2257.2 1483.39 2260.06 1369.05C2260.41 1355.19 2249.53 1343.77 2236.05 1343.77Z" fill="#84EB74"/>
<path d="M2238.22 833.522C2236.57 818.661 2222.62 808.622 2208.53 812.313C2063.58 850.314 1914.2 869.497 1761.99 869.497C1609.79 869.497 1460.41 850.314 1315.46 812.318C1301.37 808.627 1287.42 818.666 1285.77 833.526C1274.32 936.819 1266.79 1046.05 1263.92 1160.4C1263.58 1174.26 1274.46 1185.68 1287.94 1185.68H2236.05C2249.52 1185.68 2260.41 1174.26 2260.06 1160.4C2257.2 1046.05 2249.66 936.814 2238.22 833.522Z" fill="#84EB74"/>
<path d="M2208.54 625.049C2165.52 380.133 2099.57 179.274 2023.47 37.3291C2020.08 31.0055 2014.13 26.5443 2007.25 25.1166C1927.38 8.55664 1845.33 0 1761.99 0C1678.66 0 1596.61 8.55664 1516.74 25.1215C1509.85 26.5493 1503.91 31.0104 1500.52 37.334C1424.41 179.274 1358.47 380.133 1315.45 625.055C1313.25 637.593 1320.74 649.875 1332.7 653.19C1469.64 691.141 1613.56 711.406 1761.99 711.406C1910.43 711.406 2054.35 691.141 2191.29 653.185C2203.25 649.875 2210.74 637.588 2208.54 625.049Z" fill="#84EB74"/>
<path d="M2272.93 113.791C2253.37 104.587 2232.99 124.684 2240.72 145.334C2240.86 145.7 2241 146.066 2241.13 146.431C2287.86 271.441 2325.82 413.362 2354.23 566.843C2357.07 582.183 2372.94 590.922 2386.98 584.994C2481.49 545.091 2571.62 496.404 2656.44 439.965C2669 431.611 2671.26 413.594 2661.07 402.33C2651.31 391.545 2641.36 380.904 2631.18 370.43C2525.78 261.976 2404.57 175.713 2272.93 113.791Z" fill="#84EB74"/>
<path d="M2437.74 1185.68H2962.95C2977.03 1185.68 2988.06 1173.27 2986.9 1158.84C2969.93 946.803 2902.11 745.49 2789.5 569.965C2782.13 558.479 2767.17 555.371 2756.01 562.955C2664.27 625.317 2567.01 678.993 2464.77 723.486C2443.79 732.615 2422.7 741.305 2401.48 749.581C2391.07 753.641 2384.71 764.416 2386.1 775.784C2401.21 899.781 2410.58 1029.13 2413.78 1161.53C2414.1 1174.95 2424.7 1185.68 2437.74 1185.68Z" fill="#84EB74"/>
<path d="M1315.45 1904.4C1358.47 2149.31 1424.41 2350.17 1500.52 2492.12C1503.91 2498.44 1509.85 2502.9 1516.74 2504.33C1596.61 2520.89 1678.66 2529.45 1761.99 2529.45C1845.33 2529.45 1927.38 2520.89 2007.25 2504.32C2014.13 2502.9 2020.08 2498.43 2023.47 2492.11C2099.57 2350.17 2165.52 2149.31 2208.54 1904.39C2210.74 1891.85 2203.25 1879.57 2191.29 1876.26C2054.35 1838.3 1910.43 1818.04 1761.99 1818.04C1613.56 1818.04 1469.64 1838.3 1332.7 1876.26C1320.74 1879.57 1313.25 1891.86 1315.45 1904.4Z" fill="#84EB74"/>
<path d="M1059.22 1805.96C1080.19 1796.83 1101.29 1788.14 1122.51 1779.86C1132.92 1775.8 1139.28 1765.03 1137.89 1753.66C1122.77 1629.66 1113.41 1500.32 1110.21 1367.91C1109.89 1354.5 1099.29 1343.77 1086.25 1343.77H561.034C546.956 1343.77 535.926 1356.18 537.083 1370.61C554.057 1582.65 621.881 1783.96 734.489 1959.49C741.855 1970.97 756.817 1974.08 767.976 1966.5C859.721 1904.13 956.973 1850.45 1059.22 1805.96Z" fill="#84EB74"/>
<path d="M2656.45 2089.49C2571.62 2033.05 2481.49 1984.35 2386.99 1944.46C2372.95 1938.53 2357.07 1947.27 2354.23 1962.61C2325.83 2116.09 2287.87 2258.01 2241.14 2383.02C2241 2383.38 2240.86 2383.75 2240.73 2384.12C2232.99 2404.77 2253.38 2424.86 2272.94 2415.66C2404.57 2353.74 2525.78 2267.47 2631.19 2159.02C2641.37 2148.55 2651.32 2137.91 2661.08 2127.12C2671.26 2115.86 2669 2097.84 2656.45 2089.49Z" fill="#84EB74"/>
<path d="M2413.78 1367.91C2410.58 1500.31 2401.21 1629.66 2386.1 1753.66C2384.71 1765.02 2391.07 1775.8 2401.48 1779.86C2422.7 1788.14 2443.79 1796.83 2464.77 1805.95C2567.01 1850.45 2664.27 1904.13 2756.01 1966.49C2767.17 1974.07 2782.13 1970.96 2789.5 1959.48C2902.11 1783.96 2969.93 1582.64 2986.9 1370.6C2988.06 1356.17 2977.03 1343.76 2962.95 1343.76H2437.74C2424.7 1343.77 2414.1 1354.49 2413.78 1367.91Z" fill="#84EB74"/>
<path d="M867.543 439.96C952.364 496.399 1042.5 545.09 1137 584.988C1151.04 590.917 1166.92 582.177 1169.75 566.838C1198.16 413.357 1236.12 271.436 1282.85 146.426C1282.99 146.06 1283.13 145.695 1283.26 145.329C1291 124.679 1270.61 104.582 1251.05 113.785C1119.42 175.712 998.21 261.975 892.799 370.425C882.62 380.899 872.666 391.54 862.909 402.325C852.725 413.589 854.986 431.606 867.543 439.96Z" fill="#84EB74"/>
<path d="M1109.7 1185.68C1112.3 1044.85 1121.86 907.305 1137.89 775.784C1139.28 764.416 1132.92 753.641 1122.51 749.58C1101.29 741.305 1080.19 732.615 1059.22 723.485C956.973 678.988 859.721 625.311 767.976 562.955C756.817 555.371 741.859 558.484 734.489 569.965C621.881 745.49 554.057 946.803 537.083 1158.84C535.926 1173.27 546.956 1185.68 561.034 1185.68H1109.7Z" fill="#84EB74"/>
<path d="M1251.06 2415.66C1270.62 2424.86 1291 2404.76 1283.26 2384.11C1283.13 2383.75 1282.99 2383.38 1282.86 2383.01C1236.13 2258 1198.17 2116.08 1169.76 1962.6C1166.92 1947.26 1151.05 1938.52 1137.01 1944.45C1042.5 1984.35 952.369 2033.04 867.548 2089.48C854.986 2097.83 852.73 2115.85 862.919 2127.12C872.676 2137.9 882.629 2148.54 892.809 2159.02C998.21 2267.47 1119.42 2353.73 1251.06 2415.66Z" fill="#84EB74"/>
<path d="M1161.27 1086.64C1164.34 1086.64 1166.74 1087.6 1168.47 1089.52C1170.39 1091.25 1172.69 1094.8 1175.38 1100.18L1201.87 1153.17C1202.83 1155.09 1203.99 1156.24 1205.33 1156.62C1206.87 1157.01 1208.31 1157.2 1209.65 1157.2H1211.09C1212.63 1157.2 1214.07 1156.62 1215.41 1155.47C1216.75 1154.13 1217.52 1152.69 1217.71 1151.15L1224.91 1118.32C1225.68 1114.67 1226.07 1109.97 1226.07 1104.21C1226.26 1098.45 1226.35 1093.46 1226.35 1089.23V1004.56H1229.23V1089.52C1229.23 1093.74 1229.14 1098.74 1228.95 1104.5C1228.95 1110.26 1228.56 1114.96 1227.79 1118.61L1220.59 1151.15C1219.83 1154.22 1218.58 1156.53 1216.85 1158.06C1215.31 1159.41 1213.39 1160.08 1211.09 1160.08H1209.07C1207.35 1160.08 1205.52 1159.79 1203.6 1159.22C1201.87 1158.45 1200.53 1157.1 1199.57 1155.18L1173.07 1101.62C1170.58 1096.62 1168.56 1093.36 1167.03 1091.82C1165.49 1090.29 1163.57 1089.52 1161.27 1089.52H1154.07C1151.76 1089.52 1149.84 1090.29 1148.31 1091.82C1146.77 1093.36 1144.75 1096.62 1142.26 1101.62L1115.76 1155.18C1114.8 1157.1 1113.36 1158.45 1111.44 1159.22C1109.71 1159.79 1107.99 1160.08 1106.26 1160.08H1104.24C1101.94 1160.08 1099.92 1159.41 1098.19 1158.06C1096.66 1156.53 1095.51 1154.22 1094.74 1151.15L1087.54 1118.61C1086.77 1114.96 1086.29 1110.26 1086.1 1104.5C1086.1 1098.74 1086.1 1093.74 1086.1 1089.52V1004.56H1088.98V1089.23C1088.98 1093.46 1088.98 1098.45 1088.98 1104.21C1089.17 1109.97 1089.65 1114.67 1090.42 1118.32L1097.62 1151.15C1097.81 1152.69 1098.58 1154.13 1099.92 1155.47C1101.27 1156.62 1102.71 1157.2 1104.24 1157.2H1105.68C1107.03 1157.2 1108.37 1157.01 1109.71 1156.62C1111.25 1156.24 1112.5 1155.09 1113.46 1153.17L1139.95 1100.18C1142.64 1094.8 1144.85 1091.25 1146.58 1089.52C1148.5 1087.6 1150.99 1086.64 1154.07 1086.64H1161.27ZM1206.48 978.64C1202.83 978.64 1200.15 979.504 1198.42 981.232C1196.88 982.768 1196.11 985.36 1196.11 989.008V1094.99L1179.41 1058.7C1177.87 1055.44 1175.86 1053.14 1173.36 1051.79C1170.87 1050.45 1167.79 1049.78 1164.15 1049.78H1152.05C1148.4 1049.78 1145.33 1050.45 1142.83 1051.79C1140.34 1053.14 1138.32 1055.44 1136.79 1058.7L1120.08 1094.99V989.008C1120.08 985.36 1119.22 982.768 1117.49 981.232C1115.95 979.504 1113.36 978.64 1109.71 978.64H1065.36C1061.71 978.64 1059.03 979.504 1057.3 981.232C1055.76 982.768 1054.99 985.36 1054.99 989.008V1100.18C1054.99 1106.32 1055.19 1112.08 1055.57 1117.46C1056.15 1122.64 1057.68 1128.78 1060.18 1135.89L1074.58 1175.63C1075.54 1178.7 1077.07 1181.2 1079.19 1183.12C1081.49 1185.04 1084.18 1186 1087.25 1186H1125.27C1128.34 1186 1130.93 1185.33 1133.04 1183.98C1135.15 1182.45 1136.59 1180.24 1137.36 1177.36L1150.9 1130.42C1151.47 1128.5 1152.15 1127.25 1152.91 1126.67C1153.87 1125.9 1154.93 1125.52 1156.08 1125.52H1158.67C1159.83 1125.52 1160.79 1125.9 1161.55 1126.67C1162.51 1127.25 1163.28 1128.5 1163.86 1130.42L1177.11 1177.36C1177.87 1180.43 1179.51 1182.64 1182 1183.98C1184.5 1185.33 1187.28 1186 1190.35 1186H1228.66C1231.73 1186 1234.13 1185.04 1235.86 1183.12C1237.78 1181.01 1239.22 1178.51 1240.18 1175.63L1254.58 1136.46C1257.07 1129.36 1258.51 1123.22 1258.9 1118.03C1259.47 1112.66 1259.76 1106.9 1259.76 1100.75V989.008C1259.76 985.36 1258.9 982.768 1257.17 981.232C1255.63 979.504 1253.04 978.64 1249.39 978.64H1206.48ZM1098.19 1216.82C1096.85 1217.78 1095.31 1218.54 1093.59 1219.12C1091.86 1219.89 1090.03 1220.27 1088.11 1220.27H1050.1C1046.45 1220.27 1043.28 1219.12 1040.59 1216.82C1037.91 1214.51 1035.99 1211.54 1034.83 1207.89L1020.43 1168.14C1017.75 1161.04 1016.11 1154.8 1015.54 1149.42C1015.15 1143.86 1014.96 1137.9 1014.96 1131.57V1020.4C1014.96 1017.9 1015.25 1015.79 1015.83 1014.06C1016.59 1012.34 1017.65 1010.9 1018.99 1009.74L1056.15 978.352C1057.11 977.584 1058.35 977.008 1059.89 976.624C1061.62 976.048 1063.44 975.76 1065.36 975.76H1109.71C1114.32 975.76 1117.68 976.816 1119.79 978.928C1121.91 981.04 1122.96 984.4 1122.96 989.008V1064.18L1139.09 1050.64C1140.63 1049.3 1142.45 1048.34 1144.56 1047.76C1146.87 1047.18 1149.36 1046.9 1152.05 1046.9H1156.08V1020.4C1156.08 1017.9 1156.37 1015.79 1156.95 1014.06C1157.52 1012.34 1158.39 1010.99 1159.54 1010.03L1159.83 1009.74L1197.27 978.352C1198.23 977.584 1199.47 977.008 1201.01 976.624C1202.55 976.048 1204.37 975.76 1206.48 975.76H1249.39C1254 975.76 1257.36 976.816 1259.47 978.928C1261.59 981.04 1262.64 984.4 1262.64 989.008V1100.75C1262.64 1107.09 1262.35 1113.04 1261.78 1118.61C1261.39 1123.98 1259.86 1130.22 1257.17 1137.33L1242.77 1176.5C1242.19 1178.42 1241.43 1180.14 1240.47 1181.68C1239.51 1183.22 1238.35 1184.66 1237.01 1186L1199.86 1216.82C1198.71 1217.97 1197.46 1218.83 1196.11 1219.41C1194.77 1219.98 1193.23 1220.27 1191.51 1220.27H1153.2C1149.36 1220.27 1146 1219.41 1143.12 1217.68C1140.24 1215.95 1138.23 1213.26 1137.07 1209.62L1131.31 1189.17L1098.19 1216.82ZM1432.47 1220.27H1298.83C1294.23 1220.27 1290.87 1219.22 1288.75 1217.1C1286.64 1214.99 1285.59 1211.63 1285.59 1207.02V1020.4C1285.59 1017.9 1285.87 1015.79 1286.45 1014.06C1287.22 1012.34 1288.27 1010.9 1289.62 1009.74L1326.77 978.352C1327.73 977.584 1328.98 977.008 1330.51 976.624C1332.24 976.048 1334.07 975.76 1335.99 975.76H1469.62C1474.23 975.76 1477.59 976.816 1479.7 978.928C1481.81 981.04 1482.87 984.4 1482.87 989.008V1022.7C1482.87 1025.2 1482.48 1027.31 1481.71 1029.04C1481.14 1030.77 1480.18 1032.21 1478.83 1033.36L1454.07 1053.81C1455.99 1054.77 1457.33 1056.21 1458.1 1058.13C1459.06 1060.05 1459.54 1062.54 1459.54 1065.62V1096.43C1459.54 1098.93 1459.15 1101.04 1458.39 1102.77C1457.81 1104.5 1456.85 1105.94 1455.51 1107.09L1429.87 1128.69H1469.62C1474.23 1128.69 1477.59 1129.74 1479.7 1131.86C1481.81 1133.97 1482.87 1137.33 1482.87 1141.94V1175.63C1482.87 1178.13 1482.48 1180.24 1481.71 1181.97C1481.14 1183.7 1480.18 1185.14 1478.83 1186.29L1441.39 1217.39C1440.63 1218.16 1439.38 1218.83 1437.65 1219.41C1436.11 1219.98 1434.39 1220.27 1432.47 1220.27ZM1469.62 1186C1473.27 1186 1475.86 1185.23 1477.39 1183.7C1479.12 1181.97 1479.99 1179.28 1479.99 1175.63V1141.94C1479.99 1138.29 1479.12 1135.7 1477.39 1134.16C1475.86 1132.43 1473.27 1131.57 1469.62 1131.57H1390.13V1106.8H1446.29C1449.94 1106.8 1452.53 1106.03 1454.07 1104.5C1455.79 1102.77 1456.66 1100.08 1456.66 1096.43V1065.62C1456.66 1061.97 1455.79 1059.38 1454.07 1057.84C1452.53 1056.11 1449.94 1055.25 1446.29 1055.25H1390.13V1033.07H1469.62C1473.27 1033.07 1475.86 1032.3 1477.39 1030.77C1479.12 1029.04 1479.99 1026.35 1479.99 1022.7V989.008C1479.99 985.36 1479.12 982.768 1477.39 981.232C1475.86 979.504 1473.27 978.64 1469.62 978.64H1335.99C1332.34 978.64 1329.65 979.504 1327.92 981.232C1326.39 982.768 1325.62 985.36 1325.62 989.008V1175.63C1325.62 1179.28 1326.39 1181.97 1327.92 1183.7C1329.65 1185.23 1332.34 1186 1335.99 1186H1469.62ZM1454.07 1157.2V1160.08H1357.01V1004.56H1454.07V1007.44H1359.89V1079.73H1430.74V1082.61H1359.89V1157.2H1454.07ZM1515.96 1220.27C1511.35 1220.27 1507.99 1219.22 1505.88 1217.1C1503.77 1214.99 1502.71 1211.63 1502.71 1207.02V1020.4C1502.71 1017.9 1503 1015.79 1503.57 1014.06C1504.34 1012.34 1505.4 1010.9 1506.74 1009.74L1543.89 978.352C1544.85 977.584 1546.1 977.008 1547.64 976.624C1549.37 976.048 1551.19 975.76 1553.11 975.76H1644.98C1664.95 975.76 1679.64 979.696 1689.05 987.568C1698.45 995.248 1703.16 1006.96 1703.16 1022.7V1036.53C1703.16 1043.25 1702.2 1049.01 1700.28 1053.81C1698.55 1058.61 1695.86 1062.45 1692.21 1065.33L1691.35 1065.9C1701.72 1068.21 1709.49 1073.2 1714.68 1080.88C1719.86 1088.37 1722.45 1098.83 1722.45 1112.27V1138.77C1722.45 1147.41 1721.21 1154.9 1718.71 1161.23C1716.21 1167.38 1712.47 1172.56 1707.48 1176.78L1670.33 1208.18C1665.53 1212.21 1659.48 1215.18 1652.18 1217.1C1644.89 1219.22 1636.34 1220.27 1626.55 1220.27H1515.96ZM1663.7 1186C1682.71 1186 1696.73 1182.16 1705.75 1174.48C1714.97 1166.8 1719.57 1154.9 1719.57 1138.77V1112.27C1719.57 1098.26 1716.6 1087.6 1710.65 1080.3C1704.69 1073.01 1695.57 1068.78 1683.29 1067.63C1689.05 1065.14 1693.27 1061.39 1695.96 1056.4C1698.84 1051.22 1700.28 1044.59 1700.28 1036.53V1022.7C1700.28 1007.73 1695.77 996.688 1686.74 989.584C1677.72 982.288 1663.8 978.64 1644.98 978.64H1553.11C1549.46 978.64 1546.77 979.504 1545.05 981.232C1543.51 982.768 1542.74 985.36 1542.74 989.008V1175.63C1542.74 1179.28 1543.51 1181.97 1545.05 1183.7C1546.77 1185.23 1549.46 1186 1553.11 1186H1663.7ZM1652.18 1160.08H1574.71V1004.56H1633.17C1641.05 1004.56 1647.48 1005.42 1652.47 1007.15C1657.46 1008.69 1661.3 1010.9 1663.99 1013.78C1666.68 1016.46 1668.5 1019.63 1669.46 1023.28C1670.42 1026.93 1670.9 1030.86 1670.9 1035.09V1053.52C1670.9 1059.28 1669.85 1064.56 1667.73 1069.36C1665.81 1074.16 1660.73 1077.62 1652.47 1079.73C1660.34 1079.73 1666.77 1080.59 1671.77 1082.32C1676.76 1083.86 1680.6 1086.16 1683.29 1089.23C1685.97 1092.11 1687.7 1095.57 1688.47 1099.6C1689.43 1103.63 1689.91 1108.05 1689.91 1112.85V1131.28C1689.91 1135.5 1689.43 1139.44 1688.47 1143.09C1687.51 1146.54 1685.69 1149.52 1683 1152.02C1680.5 1154.51 1676.76 1156.53 1671.77 1158.06C1666.77 1159.41 1660.25 1160.08 1652.18 1160.08ZM1633.17 1007.44H1577.59V1079.73H1633.17C1641.05 1079.73 1647.29 1079.06 1651.89 1077.71C1656.5 1076.18 1659.96 1074.26 1662.26 1071.95C1664.76 1069.46 1666.29 1066.67 1666.87 1063.6C1667.64 1060.34 1668.02 1056.98 1668.02 1053.52V1035.09C1668.02 1027.41 1665.81 1020.88 1661.4 1015.5C1656.98 1010.13 1647.57 1007.44 1633.17 1007.44ZM1607.54 1027.6H1632.02C1635.67 1027.6 1638.36 1028.56 1640.09 1030.48C1642.01 1032.4 1642.97 1035.28 1642.97 1039.12V1047.18C1642.97 1051.02 1642.01 1053.9 1640.09 1055.82C1638.36 1057.74 1635.67 1058.7 1632.02 1058.7H1607.54V1027.6ZM1652.47 1082.61H1577.59V1157.2H1652.18C1666.58 1157.2 1675.99 1154.9 1680.41 1150.29C1684.82 1145.49 1687.03 1139.15 1687.03 1131.28V1112.85C1687.03 1104.21 1684.82 1097.01 1680.41 1091.25C1676.18 1085.49 1666.87 1082.61 1652.47 1082.61ZM1607.54 1103.06H1644.98C1648.63 1103.06 1651.32 1104.02 1653.05 1105.94C1654.97 1107.66 1655.93 1110.45 1655.93 1114.29V1125.52C1655.93 1129.36 1654.97 1132.24 1653.05 1134.16C1651.32 1136.08 1648.63 1137.04 1644.98 1137.04H1607.54V1103.06ZM1999.62 1205.01C1993.67 1210 1986.09 1213.74 1976.87 1216.24C1967.65 1218.93 1956.81 1220.27 1944.33 1220.27H1847.27C1842.66 1220.27 1839.3 1219.22 1837.19 1217.1C1835.08 1214.99 1834.02 1211.63 1834.02 1207.02V1020.4C1834.02 1017.9 1834.31 1015.79 1834.89 1014.06C1835.65 1012.34 1836.71 1010.9 1838.05 1009.74L1875.21 978.352C1876.17 977.584 1877.41 977.008 1878.95 976.624C1880.68 976.048 1882.5 975.76 1884.42 975.76H1981.48C2006.63 975.76 2025.16 980.848 2037.06 991.024C2049.16 1001.2 2055.21 1016.66 2055.21 1037.39V1127.25C2055.21 1137.62 2053.67 1146.74 2050.6 1154.61C2047.53 1162.29 2043.01 1168.72 2037.06 1173.9L1999.62 1205.01ZM1981.48 1186C2005.48 1186 2023.24 1181.2 2034.76 1171.6C2046.47 1162 2052.33 1147.22 2052.33 1127.25V1037.39C2052.33 1017.42 2046.47 1002.64 2034.76 993.04C2023.24 983.44 2005.48 978.64 1981.48 978.64H1884.42C1880.77 978.64 1878.09 979.504 1876.36 981.232C1874.82 982.768 1874.05 985.36 1874.05 989.008V1175.63C1874.05 1179.28 1874.82 1181.97 1876.36 1183.7C1878.09 1185.23 1880.77 1186 1884.42 1186H1981.48ZM1905.45 1160.08V1004.56H1975.14C1984.93 1004.56 1992.81 1005.62 1998.76 1007.73C2004.9 1009.84 2009.61 1012.72 2012.87 1016.37C2016.13 1019.82 2018.34 1024.05 2019.49 1029.04C2020.65 1033.84 2021.22 1039.02 2021.22 1044.59V1120.91C2021.22 1126.48 2020.65 1131.66 2019.49 1136.46C2018.53 1141.26 2016.42 1145.39 2013.16 1148.85C2009.89 1152.3 2005.19 1155.09 1999.05 1157.2C1992.9 1159.12 1984.93 1160.08 1975.14 1160.08H1905.45ZM1975.14 1007.44H1908.33V1157.2H1975.14C1984.36 1157.2 1991.75 1156.34 1997.32 1154.61C2003.08 1152.69 2007.49 1150.19 2010.57 1147.12C2013.64 1143.86 2015.65 1140.02 2016.61 1135.6C2017.77 1130.99 2018.34 1126.1 2018.34 1120.91V1044.59C2018.34 1039.41 2017.77 1034.51 2016.61 1029.9C2015.46 1025.3 2013.35 1021.36 2010.28 1018.1C2007.21 1014.83 2002.79 1012.24 1997.03 1010.32C1991.46 1008.4 1984.17 1007.44 1975.14 1007.44ZM1939.43 1033.65H1973.7C1978.31 1033.65 1981.67 1034.8 1983.78 1037.1C1986.09 1039.22 1987.24 1042.67 1987.24 1047.47V1117.46C1987.24 1122.26 1986.09 1125.81 1983.78 1128.11C1981.67 1130.42 1978.31 1131.57 1973.7 1131.57H1939.43V1033.65ZM1947.21 1078.86C1947.21 1076.37 1946.82 1074.26 1946.05 1072.53C1945.29 1070.8 1944.04 1069.55 1942.31 1068.78V1128.69H1947.21V1078.86ZM2224.47 1220.27H2090.83C2086.23 1220.27 2082.87 1219.22 2080.75 1217.1C2078.64 1214.99 2077.59 1211.63 2077.59 1207.02V1020.4C2077.59 1017.9 2077.87 1015.79 2078.45 1014.06C2079.22 1012.34 2080.27 1010.9 2081.62 1009.74L2118.77 978.352C2119.73 977.584 2120.98 977.008 2122.51 976.624C2124.24 976.048 2126.07 975.76 2127.99 975.76H2261.62C2266.23 975.76 2269.59 976.816 2271.7 978.928C2273.81 981.04 2274.87 984.4 2274.87 989.008V1022.7C2274.87 1025.2 2274.48 1027.31 2273.71 1029.04C2273.14 1030.77 2272.18 1032.21 2270.83 1033.36L2246.07 1053.81C2247.99 1054.77 2249.33 1056.21 2250.1 1058.13C2251.06 1060.05 2251.54 1062.54 2251.54 1065.62V1096.43C2251.54 1098.93 2251.15 1101.04 2250.39 1102.77C2249.81 1104.5 2248.85 1105.94 2247.51 1107.09L2221.87 1128.69H2261.62C2266.23 1128.69 2269.59 1129.74 2271.7 1131.86C2273.81 1133.97 2274.87 1137.33 2274.87 1141.94V1175.63C2274.87 1178.13 2274.48 1180.24 2273.71 1181.97C2273.14 1183.7 2272.18 1185.14 2270.83 1186.29L2233.39 1217.39C2232.63 1218.16 2231.38 1218.83 2229.65 1219.41C2228.11 1219.98 2226.39 1220.27 2224.47 1220.27ZM2261.62 1186C2265.27 1186 2267.86 1185.23 2269.39 1183.7C2271.12 1181.97 2271.99 1179.28 2271.99 1175.63V1141.94C2271.99 1138.29 2271.12 1135.7 2269.39 1134.16C2267.86 1132.43 2265.27 1131.57 2261.62 1131.57H2182.13V1106.8H2238.29C2241.94 1106.8 2244.53 1106.03 2246.07 1104.5C2247.79 1102.77 2248.66 1100.08 2248.66 1096.43V1065.62C2248.66 1061.97 2247.79 1059.38 2246.07 1057.84C2244.53 1056.11 2241.94 1055.25 2238.29 1055.25H2182.13V1033.07H2261.62C2265.27 1033.07 2267.86 1032.3 2269.39 1030.77C2271.12 1029.04 2271.99 1026.35 2271.99 1022.7V989.008C2271.99 985.36 2271.12 982.768 2269.39 981.232C2267.86 979.504 2265.27 978.64 2261.62 978.64H2127.99C2124.34 978.64 2121.65 979.504 2119.92 981.232C2118.39 982.768 2117.62 985.36 2117.62 989.008V1175.63C2117.62 1179.28 2118.39 1181.97 2119.92 1183.7C2121.65 1185.23 2124.34 1186 2127.99 1186H2261.62ZM2246.07 1157.2V1160.08H2149.01V1004.56H2246.07V1007.44H2151.89V1079.73H2222.74V1082.61H2151.89V1157.2H2246.07ZM2345.4 1220.27C2340.98 1220.27 2337.43 1219.41 2334.74 1217.68C2332.05 1216.14 2329.85 1213.26 2328.12 1209.04L2299.89 1138.48C2298.17 1134.06 2296.63 1130.32 2295.29 1127.25C2294.13 1123.98 2293.17 1120.91 2292.41 1118.03C2291.64 1114.96 2291.06 1111.79 2290.68 1108.53C2290.49 1105.07 2290.39 1101.04 2290.39 1096.43V1020.4C2290.39 1017.9 2290.68 1015.79 2291.25 1014.06C2292.02 1012.34 2293.08 1010.9 2294.42 1009.74L2331.57 978.352C2332.53 977.584 2333.78 977.008 2335.32 976.624C2337.05 976.048 2338.87 975.76 2340.79 975.76H2386.58C2391.19 975.76 2394.65 976.912 2396.95 979.216C2399.45 981.328 2400.69 984.592 2400.69 989.008V1068.5C2400.69 1070.42 2400.89 1072.24 2401.27 1073.97C2401.65 1075.7 2402.13 1077.52 2402.71 1079.44L2403.57 1081.46V1020.4C2403.57 1017.9 2403.86 1015.79 2404.44 1014.06C2405.21 1012.34 2406.26 1010.9 2407.61 1009.74L2444.76 978.352C2445.72 977.584 2446.97 977.008 2448.5 976.624C2450.23 976.048 2452.05 975.76 2453.97 975.76H2499.19C2503.99 975.76 2507.35 976.816 2509.27 978.928C2511.38 981.04 2512.44 984.4 2512.44 989.008V1065.04C2512.44 1069.65 2512.25 1073.68 2511.86 1077.14C2511.67 1080.4 2511.19 1083.57 2510.42 1086.64C2509.65 1089.52 2508.6 1092.59 2507.25 1095.86C2506.1 1098.93 2504.66 1102.67 2502.93 1107.09L2474.71 1177.65C2474.13 1179.38 2473.37 1180.91 2472.41 1182.26C2471.45 1183.6 2470.49 1184.66 2469.53 1185.42L2432.37 1216.24C2430.84 1217.58 2429.01 1218.54 2426.9 1219.12C2424.98 1219.89 2422.77 1220.27 2420.28 1220.27H2345.4ZM2457.43 1186C2461.08 1186 2464.05 1185.33 2466.36 1183.98C2468.85 1182.64 2470.77 1180.14 2472.12 1176.5L2500.34 1105.94C2502.07 1101.71 2503.51 1098.06 2504.66 1094.99C2505.81 1091.73 2506.77 1088.66 2507.54 1085.78C2508.31 1082.9 2508.79 1079.92 2508.98 1076.85C2509.37 1073.58 2509.56 1069.65 2509.56 1065.04V989.008C2509.56 985.36 2508.69 982.768 2506.97 981.232C2505.43 979.504 2502.84 978.64 2499.19 978.64H2453.97C2450.33 978.64 2447.64 979.504 2445.91 981.232C2444.37 982.768 2443.61 985.36 2443.61 989.008V1068.21C2443.61 1070.13 2443.41 1072.05 2443.03 1073.97C2442.65 1075.89 2442.07 1077.9 2441.3 1080.02L2427.77 1120.62C2427.19 1122.54 2426.52 1123.89 2425.75 1124.66C2424.98 1125.23 2423.83 1125.52 2422.29 1125.52H2419.13C2417.59 1125.52 2416.44 1125.23 2415.67 1124.66C2414.9 1123.89 2414.23 1122.54 2413.65 1120.62L2400.12 1080.3C2399.35 1078.19 2398.77 1076.18 2398.39 1074.26C2398.01 1072.34 2397.81 1070.42 2397.81 1068.5V989.008C2397.81 985.36 2396.85 982.768 2394.93 981.232C2393.01 979.504 2390.23 978.64 2386.58 978.64H2340.79C2337.14 978.64 2334.45 979.504 2332.73 981.232C2331.19 982.768 2330.42 985.36 2330.42 989.008V1065.04C2330.42 1069.65 2330.52 1073.58 2330.71 1076.85C2331.09 1079.92 2331.67 1082.9 2332.44 1085.78C2333.21 1088.66 2334.17 1091.73 2335.32 1094.99C2336.47 1098.06 2337.91 1101.71 2339.64 1105.94L2367.86 1176.5C2369.21 1180.14 2371.03 1182.64 2373.33 1183.98C2375.83 1185.33 2378.9 1186 2382.55 1186H2457.43ZM2362.97 1004.56H2365.85V1066.77C2365.85 1071.76 2366.23 1076.56 2367 1081.17C2367.77 1085.58 2368.92 1089.71 2370.45 1093.55L2389.46 1139.63C2391.38 1144.62 2393.49 1148.85 2395.8 1152.3C2398.29 1155.57 2402.23 1157.2 2407.61 1157.2H2432.95C2438.33 1157.2 2442.17 1155.57 2444.47 1152.3C2446.97 1148.85 2449.17 1144.62 2451.09 1139.63L2470.1 1093.55C2471.64 1089.71 2472.79 1085.58 2473.56 1081.17C2474.33 1076.56 2474.71 1071.76 2474.71 1066.77V1004.56H2477.59V1066.77C2477.59 1072.14 2477.21 1077.14 2476.44 1081.74C2475.86 1086.16 2474.71 1090.48 2472.98 1094.7L2453.97 1140.78C2451.67 1146.35 2449.08 1150.96 2446.2 1154.61C2443.32 1158.26 2438.9 1160.08 2432.95 1160.08H2407.61C2401.65 1160.08 2397.24 1158.26 2394.36 1154.61C2391.48 1150.96 2388.89 1146.35 2386.58 1140.78L2367.57 1094.7C2365.85 1090.48 2364.6 1086.16 2363.83 1081.74C2363.25 1077.14 2362.97 1072.14 2362.97 1066.77V1004.56ZM889.557 1353.44H826.773V1436.67H889.557C901.461 1436.67 909.429 1433.79 913.461 1428.03C917.493 1422.27 919.509 1414.11 919.509 1403.55V1383.39C919.509 1374.56 917.013 1367.36 912.021 1361.79C907.221 1356.22 899.733 1353.44 889.557 1353.44ZM857.877 1376.48H879.477C884.469 1376.48 887.829 1377.82 889.557 1380.51C891.285 1383.01 892.149 1386.18 892.149 1390.02V1399.81C892.149 1403.65 891.285 1406.91 889.557 1409.6C887.829 1412.1 884.469 1413.34 879.477 1413.34H857.877V1376.48ZM826.773 1506.08H823.893V1350.56H889.557C900.693 1350.56 908.949 1353.73 914.325 1360.06C919.701 1366.21 922.389 1373.98 922.389 1383.39V1403.26C922.389 1412.1 921.237 1419.39 918.933 1425.15C916.629 1430.72 912.021 1434.56 905.109 1436.67H908.277C919.989 1436.67 928.725 1439.36 934.485 1444.74C940.245 1449.92 943.125 1457.5 943.125 1467.49V1506.08H940.245V1467.49C940.245 1458.08 937.653 1451.07 932.469 1446.46C927.285 1441.66 919.221 1439.26 908.277 1439.26H826.773V1506.08ZM847.509 1532C851.157 1532 853.749 1531.23 855.285 1529.7C857.013 1527.97 857.877 1525.28 857.877 1521.63V1465.18H898.197C902.229 1465.18 905.013 1466.24 906.549 1468.35C908.277 1470.27 909.141 1473.34 909.141 1477.57V1521.63C909.141 1525.28 909.909 1527.97 911.445 1529.7C913.173 1531.23 915.861 1532 919.509 1532H964.149C967.797 1532 970.389 1531.23 971.925 1529.7C973.653 1527.97 974.517 1525.28 974.517 1521.63V1460.58C974.517 1448.48 971.253 1438.78 964.725 1431.49C958.389 1424.19 950.037 1419.97 939.669 1418.82C945.621 1416.32 949.749 1412.29 952.053 1406.72C954.549 1400.96 955.797 1394.05 955.797 1385.98V1372.74C955.797 1358.53 951.669 1347.01 943.413 1338.18C935.349 1329.15 920.565 1324.64 899.061 1324.64H803.157C799.509 1324.64 796.821 1325.5 795.093 1327.23C793.557 1328.77 792.789 1331.36 792.789 1335.01V1521.63C792.789 1525.28 793.557 1527.97 795.093 1529.7C796.821 1531.23 799.509 1532 803.157 1532H847.509ZM856.725 1532.29L819.285 1563.39C818.517 1564.16 817.269 1564.83 815.541 1565.41C814.005 1565.98 812.277 1566.27 810.357 1566.27H766.005C761.397 1566.27 758.037 1565.22 755.925 1563.1C753.813 1560.99 752.757 1557.63 752.757 1553.02V1366.4C752.757 1363.9 753.045 1361.79 753.621 1360.06C754.389 1358.34 755.445 1356.9 756.789 1355.74L793.941 1324.35C794.901 1323.58 796.149 1323.01 797.685 1322.62C799.413 1322.05 801.237 1321.76 803.157 1321.76H899.061C921.909 1321.76 937.557 1326.56 946.005 1336.16C954.453 1345.57 958.677 1357.76 958.677 1372.74V1385.98C958.677 1393.09 957.813 1399.33 956.085 1404.7C954.357 1409.89 951.573 1414.11 947.733 1417.38H947.445C956.469 1419.87 963.669 1424.86 969.045 1432.35C974.613 1439.84 977.397 1449.25 977.397 1460.58V1521.63C977.397 1524.13 977.013 1526.24 976.245 1527.97C975.669 1529.7 974.709 1531.14 973.365 1532.29L935.925 1563.39C935.157 1564.16 933.909 1564.83 932.181 1565.41C930.645 1565.98 928.917 1566.27 926.997 1566.27H882.357C877.749 1566.27 874.389 1565.22 872.277 1563.1C870.165 1560.99 869.109 1557.63 869.109 1553.02V1508.96C869.109 1505.89 868.533 1503.58 867.381 1502.05C866.229 1500.32 864.117 1499.46 861.045 1499.46H860.757V1521.63C860.757 1524.13 860.373 1526.24 859.605 1527.97C859.029 1529.7 858.069 1531.14 856.725 1532.29ZM1142.36 1566.27H1008.72C1004.12 1566.27 1000.76 1565.22 998.644 1563.1C996.532 1560.99 995.476 1557.63 995.476 1553.02V1366.4C995.476 1363.9 995.764 1361.79 996.34 1360.06C997.108 1358.34 998.164 1356.9 999.508 1355.74L1036.66 1324.35C1037.62 1323.58 1038.87 1323.01 1040.4 1322.62C1042.13 1322.05 1043.96 1321.76 1045.88 1321.76H1179.51C1184.12 1321.76 1187.48 1322.82 1189.59 1324.93C1191.7 1327.04 1192.76 1330.4 1192.76 1335.01V1368.7C1192.76 1371.2 1192.37 1373.31 1191.6 1375.04C1191.03 1376.77 1190.07 1378.21 1188.72 1379.36L1163.96 1399.81C1165.88 1400.77 1167.22 1402.21 1167.99 1404.13C1168.95 1406.05 1169.43 1408.54 1169.43 1411.62V1442.43C1169.43 1444.93 1169.04 1447.04 1168.28 1448.77C1167.7 1450.5 1166.74 1451.94 1165.4 1453.09L1139.76 1474.69H1179.51C1184.12 1474.69 1187.48 1475.74 1189.59 1477.86C1191.7 1479.97 1192.76 1483.33 1192.76 1487.94V1521.63C1192.76 1524.13 1192.37 1526.24 1191.6 1527.97C1191.03 1529.7 1190.07 1531.14 1188.72 1532.29L1151.28 1563.39C1150.52 1564.16 1149.27 1564.83 1147.54 1565.41C1146 1565.98 1144.28 1566.27 1142.36 1566.27ZM1179.51 1532C1183.16 1532 1185.75 1531.23 1187.28 1529.7C1189.01 1527.97 1189.88 1525.28 1189.88 1521.63V1487.94C1189.88 1484.29 1189.01 1481.7 1187.28 1480.16C1185.75 1478.43 1183.16 1477.57 1179.51 1477.57H1100.02V1452.8H1156.18C1159.83 1452.8 1162.42 1452.03 1163.96 1450.5C1165.68 1448.77 1166.55 1446.08 1166.55 1442.43V1411.62C1166.55 1407.97 1165.68 1405.38 1163.96 1403.84C1162.42 1402.11 1159.83 1401.25 1156.18 1401.25H1100.02V1379.07H1179.51C1183.16 1379.07 1185.75 1378.3 1187.28 1376.77C1189.01 1375.04 1189.88 1372.35 1189.88 1368.7V1335.01C1189.88 1331.36 1189.01 1328.77 1187.28 1327.23C1185.75 1325.5 1183.16 1324.64 1179.51 1324.64H1045.88C1042.23 1324.64 1039.54 1325.5 1037.81 1327.23C1036.28 1328.77 1035.51 1331.36 1035.51 1335.01V1521.63C1035.51 1525.28 1036.28 1527.97 1037.81 1529.7C1039.54 1531.23 1042.23 1532 1045.88 1532H1179.51ZM1163.96 1503.2V1506.08H1066.9V1350.56H1163.96V1353.44H1069.78V1425.73H1140.63V1428.61H1069.78V1503.2H1163.96ZM1220.66 1566.27C1216.06 1566.27 1212.7 1565.22 1210.58 1563.1C1208.47 1560.99 1207.42 1557.63 1207.42 1553.02V1519.33C1207.42 1516.83 1207.7 1514.72 1208.28 1512.99C1209.05 1511.26 1210.1 1509.82 1211.45 1508.67L1240.25 1484.48C1230.07 1481.41 1222.01 1476.22 1216.06 1468.93C1210.3 1461.44 1207.42 1450.78 1207.42 1436.96V1406.72C1207.42 1398.08 1208.86 1390.4 1211.74 1383.68C1214.62 1376.96 1218.74 1371.3 1224.12 1366.69L1261.56 1335.3C1266.74 1331.07 1273.18 1327.81 1280.86 1325.5C1288.54 1323.01 1297.27 1321.76 1307.06 1321.76H1387.7C1392.31 1321.76 1395.67 1322.82 1397.78 1324.93C1399.9 1327.04 1400.95 1330.4 1400.95 1335.01V1369.28C1400.95 1371.78 1400.57 1373.89 1399.8 1375.62C1399.22 1377.34 1398.26 1378.78 1396.92 1379.94L1371 1401.54C1383.1 1404.22 1392.79 1409.31 1400.09 1416.8C1407.58 1424.1 1411.32 1435.52 1411.32 1451.07V1481.31C1411.32 1489.95 1409.88 1497.63 1407 1504.35C1404.12 1511.07 1399.9 1516.74 1394.33 1521.34L1357.18 1552.45C1351.8 1556.86 1345.27 1560.22 1337.59 1562.53C1329.91 1565.02 1321.27 1566.27 1311.67 1566.27H1220.66ZM1348.82 1532C1367.26 1532 1381.75 1527.68 1392.31 1519.04C1403.06 1510.21 1408.44 1497.63 1408.44 1481.31V1451.07C1408.44 1434.94 1404.31 1423.42 1396.06 1416.51C1387.8 1409.6 1376.95 1405.18 1363.51 1403.26L1320.6 1397.5C1318.1 1397.31 1316.18 1396.35 1314.84 1394.62C1313.5 1392.9 1312.82 1390.78 1312.82 1388.29C1312.82 1385.79 1313.5 1383.78 1314.84 1382.24C1316.18 1380.51 1318.1 1379.65 1320.6 1379.65H1387.7C1391.35 1379.65 1393.94 1378.88 1395.48 1377.34C1397.21 1375.62 1398.07 1372.93 1398.07 1369.28V1335.01C1398.07 1331.36 1397.21 1328.77 1395.48 1327.23C1393.94 1325.5 1391.35 1324.64 1387.7 1324.64H1307.06C1288.44 1324.64 1273.85 1329.06 1263.29 1337.89C1252.73 1346.53 1247.45 1359.01 1247.45 1375.33V1405.57C1247.45 1421.7 1251.48 1433.22 1259.54 1440.13C1267.8 1447.04 1278.65 1451.46 1292.09 1453.38L1335.29 1459.42C1337.78 1459.62 1339.61 1460.48 1340.76 1462.02C1342.1 1463.55 1342.78 1465.95 1342.78 1469.22C1342.78 1471.52 1342.1 1473.54 1340.76 1475.26C1339.61 1476.8 1337.78 1477.57 1335.29 1477.57H1257.82C1254.17 1477.57 1251.48 1478.43 1249.75 1480.16C1248.22 1481.7 1247.45 1484.29 1247.45 1487.94V1521.63C1247.45 1525.28 1248.22 1527.97 1249.75 1529.7C1251.48 1531.23 1254.17 1532 1257.82 1532H1348.82ZM1372.15 1350.56V1353.44H1308.22C1300.15 1353.44 1293.72 1355.65 1288.92 1360.06C1284.12 1364.48 1281.72 1370.05 1281.72 1376.77V1400.38C1281.72 1407.1 1283.06 1411.81 1285.75 1414.5C1288.44 1417.18 1291.99 1418.91 1296.41 1419.68L1357.18 1432.06C1362.94 1433.22 1367.64 1435.71 1371.29 1439.55C1375.13 1443.39 1377.05 1450.3 1377.05 1460.29V1476.99C1377.05 1485.44 1374.17 1492.45 1368.41 1498.02C1362.65 1503.39 1354.87 1506.08 1345.08 1506.08H1273.37V1503.2H1345.08C1353.91 1503.2 1360.92 1500.8 1366.1 1496C1371.48 1491.01 1374.17 1484.67 1374.17 1476.99V1460.29C1374.17 1451.26 1372.54 1445.12 1369.27 1441.86C1366.2 1438.4 1361.98 1436.1 1356.6 1434.94L1295.83 1422.56C1290.84 1421.6 1286.71 1419.68 1283.45 1416.8C1280.38 1413.73 1278.84 1408.26 1278.84 1400.38V1376.77C1278.84 1369.09 1281.53 1362.85 1286.9 1358.05C1292.28 1353.06 1299.38 1350.56 1308.22 1350.56H1372.15ZM1592.76 1552.45C1586.04 1558.21 1576.63 1562.62 1564.54 1565.7C1552.44 1568.96 1536.89 1570.59 1517.88 1570.59C1499.06 1570.59 1483.61 1568.58 1471.51 1564.54C1459.61 1560.7 1450.2 1555.52 1443.29 1548.99C1436.57 1542.46 1431.86 1534.98 1429.18 1526.53C1426.68 1518.08 1425.43 1509.34 1425.43 1500.32V1410.75C1425.43 1401.92 1426.68 1393.76 1429.18 1386.27C1431.67 1378.59 1436.18 1372.06 1442.71 1366.69L1480.15 1335.58C1486.87 1329.82 1496.18 1325.41 1508.09 1322.34C1520.18 1319.07 1535.83 1317.44 1555.03 1317.44C1573.85 1317.44 1589.21 1318.98 1601.11 1322.05C1613.21 1325.12 1622.62 1329.44 1629.34 1335.01C1636.25 1340.38 1640.95 1346.91 1643.45 1354.59C1645.94 1362.08 1647.19 1370.34 1647.19 1379.36V1477.57C1647.19 1486.4 1645.94 1494.56 1643.45 1502.05C1640.95 1509.54 1636.44 1515.97 1629.91 1521.34L1592.76 1552.45ZM1644.31 1477.57V1379.36C1644.31 1370.53 1642.97 1362.56 1640.28 1355.46C1637.78 1348.16 1633.18 1341.92 1626.46 1336.74C1619.93 1331.55 1610.81 1327.52 1599.1 1324.64C1587.58 1321.76 1572.89 1320.32 1555.03 1320.32C1537.18 1320.32 1522.39 1321.76 1510.68 1324.64C1498.97 1327.52 1489.75 1331.55 1483.03 1336.74C1476.5 1341.92 1471.9 1348.16 1469.21 1355.46C1466.71 1362.56 1465.46 1370.53 1465.46 1379.36V1477.57C1465.46 1486.4 1466.71 1494.46 1469.21 1501.76C1471.9 1508.86 1476.5 1515.01 1483.03 1520.19C1489.75 1525.18 1498.97 1529.12 1510.68 1532C1522.39 1534.88 1537.18 1536.32 1555.03 1536.32C1572.89 1536.32 1587.58 1534.88 1599.1 1532C1610.81 1529.12 1619.93 1525.18 1626.46 1520.19C1633.18 1515.01 1637.78 1508.86 1640.28 1501.76C1642.97 1494.46 1644.31 1486.4 1644.31 1477.57ZM1612.92 1470.94C1612.92 1482.46 1608.79 1491.87 1600.54 1499.17C1592.28 1506.27 1576.92 1509.82 1554.46 1509.82C1531.99 1509.82 1516.73 1506.27 1508.66 1499.17C1500.6 1491.87 1496.57 1482.46 1496.57 1470.94V1385.98C1496.57 1374.46 1500.6 1365.15 1508.66 1358.05C1516.73 1350.75 1531.99 1347.1 1554.46 1347.1C1576.92 1347.1 1592.28 1350.75 1600.54 1358.05C1608.79 1365.15 1612.92 1374.46 1612.92 1385.98V1470.94ZM1499.45 1470.94C1499.45 1481.7 1503.29 1490.43 1510.97 1497.15C1518.65 1503.68 1533.14 1506.94 1554.46 1506.94C1575.77 1506.94 1590.36 1503.68 1598.23 1497.15C1606.1 1490.43 1610.04 1481.7 1610.04 1470.94V1385.98C1610.04 1375.23 1606.1 1366.59 1598.23 1360.06C1590.36 1353.34 1575.77 1349.98 1554.46 1349.98C1533.14 1349.98 1518.65 1353.34 1510.97 1360.06C1503.29 1366.59 1499.45 1375.23 1499.45 1385.98V1470.94ZM1530.84 1467.2V1389.73C1530.84 1386.08 1532.28 1383.01 1535.16 1380.51C1538.04 1377.82 1544.66 1376.48 1555.03 1376.48C1565.4 1376.48 1572.02 1377.82 1574.9 1380.51C1577.78 1383.01 1579.22 1386.08 1579.22 1389.73V1467.2C1579.22 1471.04 1577.78 1474.3 1574.9 1476.99C1572.02 1479.49 1565.4 1480.74 1555.03 1480.74C1544.66 1480.74 1538.04 1479.49 1535.16 1476.99C1532.28 1474.3 1530.84 1471.04 1530.84 1467.2ZM1533.72 1467.2C1533.72 1469.12 1534.1 1470.85 1534.87 1472.38C1535.64 1473.73 1537.08 1474.88 1539.19 1475.84V1421.12C1539.19 1419.2 1538.81 1417.57 1538.04 1416.22C1537.27 1414.69 1535.83 1413.54 1533.72 1412.77V1467.2ZM1760.06 1570.59C1741.44 1570.59 1726.08 1568.58 1713.98 1564.54C1702.08 1560.7 1692.77 1555.52 1686.05 1548.99C1679.33 1542.46 1674.62 1534.98 1671.94 1526.53C1669.44 1518.08 1668.19 1509.34 1668.19 1500.32V1366.4C1668.19 1363.9 1668.48 1361.79 1669.06 1360.06C1669.82 1358.34 1670.88 1356.9 1672.22 1355.74L1709.38 1324.35C1710.34 1323.58 1711.58 1323.01 1713.12 1322.62C1714.85 1322.05 1716.67 1321.76 1718.59 1321.76H1763.81C1768.42 1321.76 1771.78 1322.82 1773.89 1324.93C1776 1327.04 1777.06 1330.4 1777.06 1335.01V1466.34C1777.06 1468.06 1777.34 1469.7 1777.92 1471.23C1778.5 1472.58 1779.74 1473.63 1781.66 1474.4V1366.4C1781.66 1363.9 1781.95 1361.79 1782.53 1360.06C1783.1 1358.34 1783.97 1356.99 1785.12 1356.03L1785.41 1355.74L1822.85 1324.35C1823.81 1323.58 1825.06 1323.01 1826.59 1322.62C1828.13 1322.05 1829.95 1321.76 1832.06 1321.76H1875.84C1880.45 1321.76 1883.81 1322.82 1885.92 1324.93C1888.03 1327.04 1889.09 1330.4 1889.09 1335.01V1477.57C1889.09 1486.4 1887.84 1494.56 1885.34 1502.05C1882.85 1509.54 1878.34 1515.97 1871.81 1521.34L1834.37 1552.45C1827.65 1558.21 1818.34 1562.62 1806.43 1565.7C1794.53 1568.96 1779.07 1570.59 1760.06 1570.59ZM1886.21 1477.57V1335.01C1886.21 1331.36 1885.34 1328.77 1883.62 1327.23C1882.08 1325.5 1879.49 1324.64 1875.84 1324.64H1832.06C1828.42 1324.64 1825.73 1325.5 1824 1327.23C1822.46 1328.77 1821.7 1331.36 1821.7 1335.01V1466.34C1821.7 1470.18 1820.26 1473.44 1817.38 1476.13C1814.5 1478.62 1807.97 1479.87 1797.79 1479.87C1787.81 1479.87 1781.38 1478.62 1778.5 1476.13C1775.62 1473.44 1774.18 1470.18 1774.18 1466.34V1335.01C1774.18 1331.36 1773.31 1328.77 1771.58 1327.23C1770.05 1325.5 1767.46 1324.64 1763.81 1324.64H1718.59C1714.94 1324.64 1712.26 1325.5 1710.53 1327.23C1708.99 1328.77 1708.22 1331.36 1708.22 1335.01V1477.57C1708.22 1486.4 1709.47 1494.46 1711.97 1501.76C1714.66 1508.86 1719.26 1515.01 1725.79 1520.19C1732.51 1525.18 1741.63 1529.12 1753.15 1532C1764.67 1534.88 1779.36 1536.32 1797.22 1536.32C1815.07 1536.32 1829.76 1534.88 1841.28 1532C1852.8 1529.12 1861.82 1525.18 1868.35 1520.19C1875.07 1515.01 1879.68 1508.86 1882.18 1501.76C1884.86 1494.46 1886.21 1486.4 1886.21 1477.57ZM1739.9 1350.56H1742.78V1470.66C1742.78 1481.41 1746.53 1490.14 1754.02 1496.86C1761.7 1503.39 1776.19 1506.66 1797.5 1506.66C1818.82 1506.66 1833.31 1503.39 1840.99 1496.86C1848.67 1490.14 1852.51 1481.41 1852.51 1470.66V1350.56H1855.39V1470.66C1855.39 1482.18 1851.36 1491.58 1843.3 1498.88C1835.23 1505.98 1819.97 1509.54 1797.5 1509.54C1775.04 1509.54 1759.78 1505.98 1751.71 1498.88C1743.84 1491.58 1739.9 1482.18 1739.9 1470.66V1350.56ZM2049.99 1353.44H1987.21V1436.67H2049.99C2061.9 1436.67 2069.87 1433.79 2073.9 1428.03C2077.93 1422.27 2079.95 1414.11 2079.95 1403.55V1383.39C2079.95 1374.56 2077.45 1367.36 2072.46 1361.79C2067.66 1356.22 2060.17 1353.44 2049.99 1353.44ZM2018.31 1376.48H2039.91C2044.91 1376.48 2048.27 1377.82 2049.99 1380.51C2051.72 1383.01 2052.59 1386.18 2052.59 1390.02V1399.81C2052.59 1403.65 2051.72 1406.91 2049.99 1409.6C2048.27 1412.1 2044.91 1413.34 2039.91 1413.34H2018.31V1376.48ZM1987.21 1506.08H1984.33V1350.56H2049.99C2061.13 1350.56 2069.39 1353.73 2074.76 1360.06C2080.14 1366.21 2082.83 1373.98 2082.83 1383.39V1403.26C2082.83 1412.1 2081.67 1419.39 2079.37 1425.15C2077.07 1430.72 2072.46 1434.56 2065.55 1436.67H2068.71C2080.43 1436.67 2089.16 1439.36 2094.92 1444.74C2100.68 1449.92 2103.56 1457.5 2103.56 1467.49V1506.08H2100.68V1467.49C2100.68 1458.08 2098.09 1451.07 2092.91 1446.46C2087.72 1441.66 2079.66 1439.26 2068.71 1439.26H1987.21V1506.08ZM2007.95 1532C2011.59 1532 2014.19 1531.23 2015.72 1529.7C2017.45 1527.97 2018.31 1525.28 2018.31 1521.63V1465.18H2058.63C2062.67 1465.18 2065.45 1466.24 2066.99 1468.35C2068.71 1470.27 2069.58 1473.34 2069.58 1477.57V1521.63C2069.58 1525.28 2070.35 1527.97 2071.88 1529.7C2073.61 1531.23 2076.3 1532 2079.95 1532H2124.59C2128.23 1532 2130.83 1531.23 2132.36 1529.7C2134.09 1527.97 2134.95 1525.28 2134.95 1521.63V1460.58C2134.95 1448.48 2131.69 1438.78 2125.16 1431.49C2118.83 1424.19 2110.47 1419.97 2100.11 1418.82C2106.06 1416.32 2110.19 1412.29 2112.49 1406.72C2114.99 1400.96 2116.23 1394.05 2116.23 1385.98V1372.74C2116.23 1358.53 2112.11 1347.01 2103.85 1338.18C2095.79 1329.15 2081 1324.64 2059.5 1324.64H1963.59C1959.95 1324.64 1957.26 1325.5 1955.53 1327.23C1953.99 1328.77 1953.23 1331.36 1953.23 1335.01V1521.63C1953.23 1525.28 1953.99 1527.97 1955.53 1529.7C1957.26 1531.23 1959.95 1532 1963.59 1532H2007.95ZM2017.16 1532.29L1979.72 1563.39C1978.95 1564.16 1977.71 1564.83 1975.98 1565.41C1974.44 1565.98 1972.71 1566.27 1970.79 1566.27H1926.44C1921.83 1566.27 1918.47 1565.22 1916.36 1563.1C1914.25 1560.99 1913.19 1557.63 1913.19 1553.02V1366.4C1913.19 1363.9 1913.48 1361.79 1914.06 1360.06C1914.83 1358.34 1915.88 1356.9 1917.23 1355.74L1954.38 1324.35C1955.34 1323.58 1956.59 1323.01 1958.12 1322.62C1959.85 1322.05 1961.67 1321.76 1963.59 1321.76H2059.5C2082.35 1321.76 2097.99 1326.56 2106.44 1336.16C2114.89 1345.57 2119.11 1357.76 2119.11 1372.74V1385.98C2119.11 1393.09 2118.25 1399.33 2116.52 1404.7C2114.79 1409.89 2112.01 1414.11 2108.17 1417.38H2107.88C2116.91 1419.87 2124.11 1424.86 2129.48 1432.35C2135.05 1439.84 2137.83 1449.25 2137.83 1460.58V1521.63C2137.83 1524.13 2137.45 1526.24 2136.68 1527.97C2136.11 1529.7 2135.15 1531.14 2133.8 1532.29L2096.36 1563.39C2095.59 1564.16 2094.35 1564.83 2092.62 1565.41C2091.08 1565.98 2089.35 1566.27 2087.43 1566.27H2042.79C2038.19 1566.27 2034.83 1565.22 2032.71 1563.1C2030.6 1560.99 2029.55 1557.63 2029.55 1553.02V1508.96C2029.55 1505.89 2028.97 1503.58 2027.82 1502.05C2026.67 1500.32 2024.55 1499.46 2021.48 1499.46H2021.19V1521.63C2021.19 1524.13 2020.81 1526.24 2020.04 1527.97C2019.47 1529.7 2018.51 1531.14 2017.16 1532.29ZM2295.34 1566.27H2225.07C2199.91 1566.27 2181.29 1559.74 2169.19 1546.69C2157.29 1533.63 2151.34 1516.74 2151.34 1496V1415.07C2151.34 1404.51 2152.87 1395.39 2155.95 1387.71C2159.02 1379.84 2163.53 1373.31 2169.48 1368.13L2206.92 1336.74C2212.87 1331.74 2220.46 1328 2229.67 1325.5C2238.89 1323.01 2249.74 1321.76 2262.22 1321.76H2332.49C2337.1 1321.76 2340.46 1322.82 2342.57 1324.93C2344.68 1327.04 2345.74 1330.4 2345.74 1335.01V1369.86C2345.74 1372.35 2345.35 1374.46 2344.59 1376.19C2344.01 1377.92 2343.05 1379.36 2341.71 1380.51L2304.27 1411.62C2303.5 1412.38 2302.25 1413.06 2300.52 1413.63C2298.99 1414.21 2297.26 1414.5 2295.34 1414.5H2259.91V1463.17C2259.91 1467.2 2261.16 1470.08 2263.66 1471.81C2266.15 1473.34 2269.8 1474.11 2274.6 1474.11H2332.49C2337.1 1474.11 2340.46 1475.17 2342.57 1477.28C2344.68 1479.39 2345.74 1482.75 2345.74 1487.36V1521.63C2345.74 1524.13 2345.35 1526.24 2344.59 1527.97C2344.01 1529.7 2343.05 1531.14 2341.71 1532.29L2304.27 1563.39C2303.5 1564.16 2302.25 1564.83 2300.52 1565.41C2298.99 1565.98 2297.26 1566.27 2295.34 1566.27ZM2332.49 1532C2336.14 1532 2338.73 1531.23 2340.27 1529.7C2341.99 1527.97 2342.86 1525.28 2342.86 1521.63V1487.36C2342.86 1483.71 2341.99 1481.12 2340.27 1479.58C2338.73 1477.86 2336.14 1476.99 2332.49 1476.99H2274.6C2268.65 1476.99 2264.23 1475.94 2261.35 1473.82C2258.47 1471.52 2257.03 1467.97 2257.03 1463.17V1394.62C2257.03 1389.82 2258.47 1386.27 2261.35 1383.97C2264.23 1381.47 2268.65 1380.22 2274.6 1380.22H2332.49C2336.14 1380.22 2338.73 1379.46 2340.27 1377.92C2341.99 1376.19 2342.86 1373.5 2342.86 1369.86V1335.01C2342.86 1331.36 2341.99 1328.77 2340.27 1327.23C2338.73 1325.5 2336.14 1324.64 2332.49 1324.64H2262.22C2238.22 1324.64 2220.36 1329.54 2208.65 1339.33C2197.13 1348.93 2191.37 1363.71 2191.37 1383.68V1473.25C2191.37 1493.22 2197.13 1508 2208.65 1517.6C2220.36 1527.2 2238.22 1532 2262.22 1532H2332.49ZM2316.65 1503.2V1506.08H2268.55C2249.93 1506.08 2237.55 1503.2 2231.4 1497.44C2225.45 1491.68 2222.47 1482.18 2222.47 1468.93V1388.29C2222.47 1374.66 2225.55 1364.96 2231.69 1359.2C2237.83 1353.44 2250.12 1350.56 2268.55 1350.56H2316.65V1353.44H2268.55C2251.66 1353.44 2240.23 1356.13 2234.28 1361.5C2228.33 1366.69 2225.35 1375.62 2225.35 1388.29V1468.93C2225.35 1481.41 2228.23 1490.24 2233.99 1495.42C2239.75 1500.61 2251.27 1503.2 2268.55 1503.2H2316.65ZM2510.92 1566.27H2377.29C2372.68 1566.27 2369.32 1565.22 2367.21 1563.1C2365.09 1560.99 2364.04 1557.63 2364.04 1553.02V1366.4C2364.04 1363.9 2364.33 1361.79 2364.9 1360.06C2365.67 1358.34 2366.73 1356.9 2368.07 1355.74L2405.22 1324.35C2406.18 1323.58 2407.43 1323.01 2408.97 1322.62C2410.69 1322.05 2412.52 1321.76 2414.44 1321.76H2548.07C2552.68 1321.76 2556.04 1322.82 2558.15 1324.93C2560.26 1327.04 2561.32 1330.4 2561.32 1335.01V1368.7C2561.32 1371.2 2560.93 1373.31 2560.17 1375.04C2559.59 1376.77 2558.63 1378.21 2557.29 1379.36L2532.52 1399.81C2534.44 1400.77 2535.78 1402.21 2536.55 1404.13C2537.51 1406.05 2537.99 1408.54 2537.99 1411.62V1442.43C2537.99 1444.93 2537.61 1447.04 2536.84 1448.77C2536.26 1450.5 2535.3 1451.94 2533.96 1453.09L2508.33 1474.69H2548.07C2552.68 1474.69 2556.04 1475.74 2558.15 1477.86C2560.26 1479.97 2561.32 1483.33 2561.32 1487.94V1521.63C2561.32 1524.13 2560.93 1526.24 2560.17 1527.97C2559.59 1529.7 2558.63 1531.14 2557.29 1532.29L2519.85 1563.39C2519.08 1564.16 2517.83 1564.83 2516.1 1565.41C2514.57 1565.98 2512.84 1566.27 2510.92 1566.27ZM2548.07 1532C2551.72 1532 2554.31 1531.23 2555.85 1529.7C2557.57 1527.97 2558.44 1525.28 2558.44 1521.63V1487.94C2558.44 1484.29 2557.57 1481.7 2555.85 1480.16C2554.31 1478.43 2551.72 1477.57 2548.07 1477.57H2468.58V1452.8H2524.74C2528.39 1452.8 2530.98 1452.03 2532.52 1450.5C2534.25 1448.77 2535.11 1446.08 2535.11 1442.43V1411.62C2535.11 1407.97 2534.25 1405.38 2532.52 1403.84C2530.98 1402.11 2528.39 1401.25 2524.74 1401.25H2468.58V1379.07H2548.07C2551.72 1379.07 2554.31 1378.3 2555.85 1376.77C2557.57 1375.04 2558.44 1372.35 2558.44 1368.7V1335.01C2558.44 1331.36 2557.57 1328.77 2555.85 1327.23C2554.31 1325.5 2551.72 1324.64 2548.07 1324.64H2414.44C2410.79 1324.64 2408.1 1325.5 2406.37 1327.23C2404.84 1328.77 2404.07 1331.36 2404.07 1335.01V1521.63C2404.07 1525.28 2404.84 1527.97 2406.37 1529.7C2408.1 1531.23 2410.79 1532 2414.44 1532H2548.07ZM2532.52 1503.2V1506.08H2435.46V1350.56H2532.52V1353.44H2438.34V1425.73H2509.19V1428.61H2438.34V1503.2H2532.52ZM2589.23 1566.27C2584.62 1566.27 2581.26 1565.22 2579.15 1563.1C2577.04 1560.99 2575.98 1557.63 2575.98 1553.02V1519.33C2575.98 1516.83 2576.27 1514.72 2576.84 1512.99C2577.61 1511.26 2578.67 1509.82 2580.01 1508.67L2608.81 1484.48C2598.64 1481.41 2590.57 1476.22 2584.62 1468.93C2578.86 1461.44 2575.98 1450.78 2575.98 1436.96V1406.72C2575.98 1398.08 2577.42 1390.4 2580.3 1383.68C2583.18 1376.96 2587.31 1371.3 2592.68 1366.69L2630.12 1335.3C2635.31 1331.07 2641.74 1327.81 2649.42 1325.5C2657.1 1323.01 2665.84 1321.76 2675.63 1321.76H2756.27C2760.88 1321.76 2764.24 1322.82 2766.35 1324.93C2768.46 1327.04 2769.52 1330.4 2769.52 1335.01V1369.28C2769.52 1371.78 2769.13 1373.89 2768.36 1375.62C2767.79 1377.34 2766.83 1378.78 2765.48 1379.94L2739.56 1401.54C2751.66 1404.22 2761.36 1409.31 2768.65 1416.8C2776.14 1424.1 2779.88 1435.52 2779.88 1451.07V1481.31C2779.88 1489.95 2778.44 1497.63 2775.56 1504.35C2772.68 1511.07 2768.46 1516.74 2762.89 1521.34L2725.74 1552.45C2720.36 1556.86 2713.84 1560.22 2706.16 1562.53C2698.48 1565.02 2689.84 1566.27 2680.24 1566.27H2589.23ZM2717.39 1532C2735.82 1532 2750.32 1527.68 2760.88 1519.04C2771.63 1510.21 2777 1497.63 2777 1481.31V1451.07C2777 1434.94 2772.88 1423.42 2764.62 1416.51C2756.36 1409.6 2745.52 1405.18 2732.08 1403.26L2689.16 1397.5C2686.67 1397.31 2684.75 1396.35 2683.4 1394.62C2682.06 1392.9 2681.39 1390.78 2681.39 1388.29C2681.39 1385.79 2682.06 1383.78 2683.4 1382.24C2684.75 1380.51 2686.67 1379.65 2689.16 1379.65H2756.27C2759.92 1379.65 2762.51 1378.88 2764.04 1377.34C2765.77 1375.62 2766.64 1372.93 2766.64 1369.28V1335.01C2766.64 1331.36 2765.77 1328.77 2764.04 1327.23C2762.51 1325.5 2759.92 1324.64 2756.27 1324.64H2675.63C2657 1324.64 2642.41 1329.06 2631.85 1337.89C2621.29 1346.53 2616.01 1359.01 2616.01 1375.33V1405.57C2616.01 1421.7 2620.04 1433.22 2628.11 1440.13C2636.36 1447.04 2647.21 1451.46 2660.65 1453.38L2703.85 1459.42C2706.35 1459.62 2708.17 1460.48 2709.32 1462.02C2710.67 1463.55 2711.34 1465.95 2711.34 1469.22C2711.34 1471.52 2710.67 1473.54 2709.32 1475.26C2708.17 1476.8 2706.35 1477.57 2703.85 1477.57H2626.38C2622.73 1477.57 2620.04 1478.43 2618.32 1480.16C2616.78 1481.7 2616.01 1484.29 2616.01 1487.94V1521.63C2616.01 1525.28 2616.78 1527.97 2618.32 1529.7C2620.04 1531.23 2622.73 1532 2626.38 1532H2717.39ZM2740.72 1350.56V1353.44H2676.78C2668.72 1353.44 2662.28 1355.65 2657.48 1360.06C2652.68 1364.48 2650.28 1370.05 2650.28 1376.77V1400.38C2650.28 1407.1 2651.63 1411.81 2654.32 1414.5C2657 1417.18 2660.56 1418.91 2664.97 1419.68L2725.74 1432.06C2731.5 1433.22 2736.2 1435.71 2739.85 1439.55C2743.69 1443.39 2745.61 1450.3 2745.61 1460.29V1476.99C2745.61 1485.44 2742.73 1492.45 2736.97 1498.02C2731.21 1503.39 2723.44 1506.08 2713.64 1506.08H2641.93V1503.2H2713.64C2722.48 1503.2 2729.48 1500.8 2734.67 1496C2740.04 1491.01 2742.73 1484.67 2742.73 1476.99V1460.29C2742.73 1451.26 2741.1 1445.12 2737.84 1441.86C2734.76 1438.4 2730.54 1436.1 2725.16 1434.94L2664.4 1422.56C2659.4 1421.6 2655.28 1419.68 2652.01 1416.8C2648.94 1413.73 2647.4 1408.26 2647.4 1400.38V1376.77C2647.4 1369.09 2650.09 1362.85 2655.47 1358.05C2660.84 1353.06 2667.95 1350.56 2676.78 1350.56H2740.72Z" fill="black"/>
</svg>
